<?xml version="1.0" encoding="UTF-8" standalone="no"?>
<svg viewBox="0 0 325 220" version="1.1" xmlns="http://www.w3.org/2000/svg" xmlns:xlink="http://www.w3.org/1999/xlink" xmlns:sketch="http://www.bohemiancoding.com/sketch/ns">
    <!-- Generator: Sketch 3.2.2 (9983) - http://www.bohemiancoding.com/sketch -->
    <title>light_pink</title>
    <desc>Created with Sketch.</desc>
    <defs></defs>
    <g id="Primary" stroke="none" stroke-width="1" fill="none" fill-rule="evenodd" sketch:type="MSPage">
        <g id="light_pink" sketch:type="MSArtboardGroup" fill="#F6C4C3">
            <g id="primary_light-pink" sketch:type="MSLayerGroup" transform="translate(13.000000, 11.000000)">
                <path d="M106.104842,198.817006 C108.731926,198.817006 110.468086,197.902863 112.044337,196.463088 C112.204247,196.325966 112.341312,196.09743 112.341312,195.823188 C112.341312,195.366116 111.930116,194.954752 111.473232,194.954752 C111.24479,194.954752 111.039192,195.069019 110.902126,195.206141 C109.531474,196.463088 108.137977,197.148695 106.15053,197.148695 C102.632521,197.148695 99.959748,194.246291 99.959748,190.544011 L99.959748,190.498304 C99.959748,186.818878 102.609677,183.939327 106.15053,183.939327 C108.115132,183.939327 109.508629,184.670642 110.742217,185.767614 C110.879282,185.859028 111.08488,185.973296 111.336167,185.973296 C111.815895,185.973296 112.249935,185.561931 112.249935,185.082006 C112.249935,184.762056 112.067181,184.510667 111.884428,184.350692 C110.399554,183.116599 108.75477,182.271016 106.173374,182.271016 C101.467466,182.271016 98.0865225,186.019003 98.0865225,190.544011 L98.0865225,190.589718 C98.0865225,195.183287 101.49031,198.817006 106.104842,198.817006 L106.104842,198.817006 Z M114.785643,197.742888 C114.785643,198.245667 115.196839,198.657031 115.676568,198.657031 C116.17914,198.657031 116.590336,198.245667 116.590336,197.742888 L116.590336,191.343886 L125.819399,191.343886 L125.819399,197.742888 C125.819399,198.245667 126.230594,198.657031 126.733167,198.657031 C127.212896,198.657031 127.624092,198.245667 127.624092,197.742888 L127.624092,183.345134 C127.624092,182.842356 127.212896,182.430991 126.733167,182.430991 C126.230594,182.430991 125.819399,182.842356 125.819399,183.345134 L125.819399,189.652722 L116.590336,189.652722 L116.590336,183.345134 C116.590336,182.842356 116.17914,182.430991 115.676568,182.430991 C115.196839,182.430991 114.785643,182.842356 114.785643,183.345134 L114.785643,197.742888 Z M131.439076,197.742888 C131.439076,198.245667 131.850272,198.657031 132.33,198.657031 C132.832573,198.657031 133.243769,198.245667 133.243769,197.742888 L133.243769,183.345134 C133.243769,182.842356 132.832573,182.430991 132.33,182.430991 C131.850272,182.430991 131.439076,182.842356 131.439076,183.345134 L131.439076,197.742888 Z M144.368901,198.817006 C146.995986,198.817006 148.732146,197.902863 150.308397,196.463088 C150.468306,196.325966 150.605372,196.09743 150.605372,195.823188 C150.605372,195.366116 150.194176,194.954752 149.737292,194.954752 C149.508849,194.954752 149.303251,195.069019 149.166186,195.206141 C147.795533,196.463088 146.402036,197.148695 144.41459,197.148695 C140.896581,197.148695 138.223808,194.246291 138.223808,190.544011 L138.223808,190.498304 C138.223808,186.818878 140.873737,183.939327 144.41459,183.939327 C146.379192,183.939327 147.772689,184.670642 149.006277,185.767614 C149.143342,185.859028 149.34894,185.973296 149.600226,185.973296 C150.079955,185.973296 150.513995,185.561931 150.513995,185.082006 C150.513995,184.762056 150.331241,184.510667 150.148487,184.350692 C148.663613,183.116599 147.01883,182.271016 144.437434,182.271016 C139.731526,182.271016 136.350582,186.019003 136.350582,190.544011 L136.350582,190.589718 C136.350582,195.183287 139.75437,198.817006 144.368901,198.817006 L144.368901,198.817006 Z M151.953181,197.834302 C151.953181,198.291374 152.318688,198.657031 152.775572,198.657031 C153.186768,198.657031 153.483743,198.428495 153.643653,198.039985 L155.31128,194.314851 L164.083458,194.314851 L165.751086,197.994277 C165.910995,198.359935 166.20797,198.657031 166.64201,198.657031 C167.121739,198.657031 167.51009,198.26852 167.51009,197.788595 C167.51009,197.651474 167.464402,197.491499 167.395869,197.331524 L160.908113,183.162306 C160.702515,182.659527 160.337007,182.362431 159.788746,182.362431 L159.697369,182.362431 C159.126264,182.362431 158.783601,182.659527 158.555159,183.162306 L152.067402,197.354377 C151.976025,197.537206 151.953181,197.697181 151.953181,197.834302 L151.953181,197.834302 Z M156.019451,192.669394 L159.697369,184.487813 L163.375288,192.669394 L156.019451,192.669394 Z M176.693465,198.817006 C179.069263,198.817006 181.033866,197.94857 182.495895,196.874452 C182.907091,196.600209 183.112689,196.211698 183.112689,195.77748 L183.112689,190.909668 C183.112689,190.40689 182.701493,189.995525 182.221765,189.995525 L177.081817,189.995525 C176.647776,189.995525 176.282269,190.361183 176.282269,190.818254 C176.282269,191.252472 176.647776,191.618129 177.081817,191.618129 L181.376529,191.618129 L181.376529,195.594652 C180.280006,196.485941 178.589535,197.194402 176.761998,197.194402 C172.878481,197.194402 170.43415,194.360559 170.43415,190.544011 L170.43415,190.498304 C170.43415,186.933146 172.969858,183.939327 176.510711,183.939327 C178.521002,183.939327 179.800278,184.53352 180.942489,185.401956 C181.125242,185.539078 181.307996,185.630492 181.513594,185.630492 C181.993323,185.630492 182.404518,185.219128 182.404518,184.716349 C182.404518,184.396399 182.244609,184.14501 182.039011,183.985035 C180.576981,182.910916 179.000731,182.271016 176.579244,182.271016 C171.781959,182.271016 168.560925,186.156124 168.560925,190.544011 L168.560925,190.589718 C168.560925,195.160434 171.667738,198.817006 176.693465,198.817006 L176.693465,198.817006 Z M193.735249,198.817006 C198.601067,198.817006 201.913478,194.954752 201.913478,190.544011 L201.913478,190.498304 C201.913478,186.087564 198.646755,182.271016 193.780937,182.271016 C188.91512,182.271016 185.602709,186.133271 185.602709,190.544011 L185.602709,190.589718 C185.602709,195.000459 188.869431,198.817006 193.735249,198.817006 L193.735249,198.817006 Z M193.780937,197.148695 C190.125863,197.148695 187.475934,194.17773 187.475934,190.544011 L187.475934,190.498304 C187.475934,186.864585 190.080175,183.939327 193.735249,183.939327 C197.390323,183.939327 200.040252,186.910292 200.040252,190.544011 L200.040252,190.589718 C200.040252,194.223437 197.436012,197.148695 193.780937,197.148695 L193.780937,197.148695 Z" id="CHICAGO" sketch:type="MSShapeGroup"></path>
                <path d="M169.387067,98.0721219 L149.564371,89.7997166 L130.147032,97.867021 L121.612221,117.080237 L129.402599,137.096416 L149.098316,145.666706 L169.056363,137.725672 L177.478846,117.967613 L169.387067,98.0721219 L169.387067,98.0721219 Z M167.391681,128.232427 L153.446304,124.111572 L149.913913,138.742805 L146.375242,124.111572 L132.435447,128.232427 L142.848432,117.73949 L132.435447,107.247251 L146.375242,111.379267 L149.913913,96.7424538 L153.446304,111.379267 L167.391681,107.247251 L156.973114,117.73949 L167.391681,128.232427 Z M165.013264,82.3065553 L186.26901,80.1690406 C181.668459,75.7161174 176.266265,72.0870861 170.292665,69.5470433 C170.284293,69.5861101 165.013264,82.3065553 165.013264,82.3065553 Z M135.311314,81.8161268 L148.633656,65.4366526 C142.109581,65.5950129 135.876441,66.950493 130.146334,69.3014802 L135.311314,81.8161268 Z M185.573415,103.711003 L202.240471,117.396958 C202.197214,110.669088 200.866724,104.239801 198.494587,98.3330327 C198.441563,98.3783781 185.573415,103.711003 185.573415,103.711003 Z M101.850225,138.405156 C104.22585,143.897536 107.51754,148.905069 111.530638,153.238699 L113.821146,133.465292 L101.850225,138.405156 Z M164.970705,153.319623 L170.192896,165.967516 C176.051377,163.490259 181.360779,159.966569 185.909003,155.646194 L164.970705,153.319623 Z M169.061247,69.0573124 C163.277418,66.7705065 156.998929,65.4826957 150.43369,65.4178168 L163.739985,81.8042673 C163.739985,81.8042673 169.044502,69.0859149 169.061247,69.0573124 Z M133.878264,81.9298393 L128.887706,69.8386494 C123.445744,72.240563 118.487279,75.5417118 114.199292,79.5551329 L133.878264,81.9298393 Z M198.383655,137.41802 C200.766955,131.583107 202.120469,125.230558 202.227215,118.580823 L185.486902,132.04005 C185.486902,132.04005 198.361329,137.405463 198.383655,137.41802 Z M113.121365,154.889273 C117.67866,159.401494 123.059225,163.080755 129.009801,165.689164 L134.299668,152.963836 L113.121365,154.889273 Z M127.635357,136.326939 L120.829416,118.841733 L115.422338,131.012452 L127.635357,136.326939 Z M170.848024,137.013399 L183.222906,132.089581 L178.205138,119.752828 L170.848024,137.013399 Z M163.598354,153.512865 L149.81205,170.065349 C149.845539,170.065349 149.878331,170.06814 149.91182,170.06814 C156.617991,170.06814 163.029041,168.781724 168.930082,166.466316 L163.598354,153.512865 Z M113.110202,103.580548 L101.211143,98.6344055 C99.1006385,103.985169 97.8475918,109.757993 97.6250295,115.789636 L113.110202,103.580548 Z M151.344172,89.0602369 L168.660774,96.2862088 L163.643704,83.9501535 L151.344172,89.0602369 Z M128.33444,138.123316 L115.276522,132.465641 C115.249312,132.570285 112.872989,153.537979 112.872989,153.537979 L133.600585,151.653003 L128.33444,138.123316 Z M136.341939,82.8186101 L149.565069,88.3179668 L162.801595,82.8186101 L149.541347,66.4893647 L136.341939,82.8186101 Z M187.286936,81.1778024 L185.027824,102.455981 C185.027824,102.455981 197.93853,97.1498652 198.009694,97.1449819 C195.435925,91.1684515 191.777252,85.7660644 187.286936,81.1778024 Z M184.622467,104.700231 L178.961432,117.98017 L184.340602,131.206391 L200.792769,117.978775 L184.622467,104.700231 Z M184.891077,133.273446 L186.938092,154.660453 C191.508643,150.07847 195.228712,144.654456 197.862482,138.651416 C197.840156,138.64444 184.891077,133.273446 184.891077,133.273446 Z M135.857604,152.407133 L149.054362,168.979151 L162.363447,152.931048 L149.074595,147.148456 L135.857604,152.407133 Z M97.5873544,118.192247 C97.6452625,124.878259 98.9715663,131.267084 101.330448,137.139669 L113.980916,131.918664 L97.5873544,118.192247 Z M116.362821,103.593803 L120.913139,115.28386 L128.310719,98.6295221 L116.362821,103.593803 Z M130.270523,166.220055 C135.854813,168.494304 141.913531,169.826065 148.251323,170.025585 L135.360153,153.978179 L130.270523,166.220055 Z M183.531982,133.43948 L170.091731,138.786755 L164.503952,151.895776 L185.522484,154.229323 L183.531982,133.43948 Z M183.457329,103.943311 L171.16617,98.8143921 L178.235139,116.194257 L183.457329,103.943311 Z M147.306655,146.379676 L130.10238,138.892794 L134.93247,151.302797 L147.306655,146.379676 Z M113.911845,80.8987535 C113.911845,80.8987535 115.833276,102.25088 115.86537,102.319247 L129.117943,96.8129136 L134.723456,83.5069963 L113.911845,80.8987535 Z M112.560425,81.1533856 C108.004526,85.8030383 104.29841,91.2891402 101.716269,97.36264 L114.340225,102.610853 L112.560425,81.1533856 Z M168.300767,139.499725 L150.866256,146.436184 L163.078577,151.750671 L168.300767,139.499725 Z M185.86784,81.5845162 L165.011869,83.6815689 L170.440575,97.0291766 L183.642914,102.5383 L185.86784,81.5845162 Z M98.2969025,117.166742 L114.224409,130.420171 L120.130333,117.083725 L115.098612,104.13446 L98.2969025,117.166742 Z M130.954256,96.0504125 L147.785268,89.0574464 L136.207145,84.2257143 L130.954256,96.0504125 Z" id="gem" sketch:type="MSShapeGroup"></path>
                <path d="M275.532469,75.2074803 C276.534769,74.4258908 277.417004,74.4535525 278.345147,75.2716319 C283.197737,79.7587091 287.839626,81.2112415 293.759845,78.3350156 C300.83774,74.9538169 301.702908,69.1631095 297.199327,65.5594403 C291.802329,61.2400987 279.68704,66.1927161 276.440601,67.4092414 C275.581319,67.7311762 262.853938,72.7773725 257.242119,72.9162694 C256.241585,72.9156809 256.071494,72.3583275 256.79953,71.7456508 L277.376395,54.5777542 C278.425778,53.73731 278.155634,52.9927989 276.840226,52.9574862 L272.682124,52.8721469 C271.155427,52.8574333 270.771693,52.4525134 270.758745,50.9776163 C270.718135,48.5539825 269.193792,46.6582747 267.343981,45.7513248 C261.42906,42.8509685 249.515642,52.0699583 248.03956,53.3712342 C246.378085,54.8367146 235.409878,61.9551825 232.572482,60.9758414 C231.348299,60.5538537 230.656165,59.1319258 235.196824,53.9126969 L255.847257,30.1583783 C256.883104,28.9595094 256.651804,28.0072414 255.149237,27.4887321 L253.981555,27.0855778 C252.256517,26.4905575 251.210665,26.814258 250.005315,28.1420185 L241.847432,37.5293325 C241.150589,38.285026 240.630312,38.1679053 240.437268,37.1049906 C240.210676,35.5947807 239.301956,33.5383998 236.575795,32.5973143 C230.502553,30.5015008 218.446119,42.8009421 218.244246,43.0128187 C212.788982,48.7470257 206.931738,53.3582862 204.00959,52.6738068 C202.748917,52.3783566 201.915531,51.0341167 205.901188,45.378775 L216.781701,29.9141315 C217.690421,28.6163869 217.362599,27.6929577 215.815303,27.3298246 L214.611719,27.0479109 C212.835477,26.6312201 211.828469,27.0602703 210.764372,28.503386 C210.764372,28.503386 197.571448,47.4122026 191.607677,48.738786 C190.80313,48.9177041 189.052784,48.0136969 192.241544,41.2289348 L195.231964,34.8455613 C195.829342,33.5807752 196.062407,32.5325742 196.099486,31.8274957 C196.261337,28.7711745 193.206177,26.3699055 190.906126,24.1852215 C189.950321,23.3094646 189.761986,22.4154627 190.352889,21.2677973 L191.213937,19.4868561 C191.808372,18.2803361 191.673006,17.5075748 190.59596,16.6841985 L190.201043,16.3681491 C189.353532,15.6754301 188.237054,15.6159869 187.265359,16.1539182 C185.321969,17.2291924 183.56456,19.2579116 183.452736,21.3737357 C183.408595,22.1965234 183.603405,22.9728161 183.977133,23.6996708 C184.784035,25.1569115 184.749899,25.8037239 183.963597,27.2939232 C177.813255,38.8135406 172.477466,46.0744368 169.819577,48.408023 C168.52006,49.576876 170.575863,51.9257644 171.869495,50.8746207 C174.886399,48.4415701 180.763065,39.8540906 186.514958,29.1972821 C187.102919,28.1090599 187.876273,27.9731057 188.769691,28.904186 C189.885581,30.0830443 190.206929,30.689247 190.160434,31.571478 C190.15396,31.6885987 190.123355,32.2765565 189.590718,33.426576 L187.135878,38.6004869 C182.427483,48.4874767 184.99297,52.3365698 189.636036,52.5825821 C192.542293,52.7367813 195.22961,50.9923299 197.835118,48.2179225 C196.094189,53.0440025 198.102319,55.3393332 201.505312,56.1368135 C205.237304,57.0119819 209.341259,55.0997948 213.531731,51.7568516 C212.391711,55.2110301 213.25217,58.4798164 216.765221,59.6922219 C219.602618,60.671563 222.684263,59.6804509 224.460505,58.861783 C225.508712,58.3515133 225.859487,58.5969371 225.958952,59.7522536 C226.037229,61.148874 226.723478,63.1293325 229.672699,64.1469291 C233.271678,65.3887618 237.471567,63.9638912 241.796228,61.2524582 C240.223036,64.4017696 240.532613,67.7970934 243.616611,69.4438461 C245.745983,70.580329 248.020138,70.1942427 249.509168,69.6545457 C250.146567,69.4609139 250.270751,69.7275254 249.786375,70.1359766 L248.843519,70.9004983 C247.981294,71.6408895 246.83892,72.0316843 245.734212,71.9757724 C241.081729,71.6926816 233.988532,70.1071378 230.935726,74.9491085 C229.175963,77.7452921 230.144127,80.9310934 233.570073,82.7602954 C239.384941,85.8654659 245.618857,81.1882882 250.360211,77.1814647 C251.386052,76.2609783 252.289476,75.9431632 253.657265,76.0061377 C257.901294,76.1774047 263.042274,76.0679351 269.133171,73.7308176 C265.99738,78.0731124 266.740718,82.2676822 271.182501,85.8230906 C278.535248,91.7067883 288.545885,89.842862 296.129345,86.8659947 C298.01388,86.1120668 297.14165,83.1528558 295.293604,83.8597 C287.176919,86.9377973 279.161465,87.1573251 274.703792,83.5901458 C270.568055,80.2801612 273.500797,76.8983739 275.532469,75.2074803 L275.532469,75.2074803 Z M281.54509,71.2736366 C284.514322,69.7298796 290.728227,66.8636589 293.715115,69.2537456 C295.32362,70.5408964 294.440796,72.0210905 290.708805,73.8585321 C287.849631,75.2645693 284.650865,76.2474417 281.369702,73.4706801 C280.450388,72.7349972 280.515129,71.8068596 281.54509,71.2736366 L281.54509,71.2736366 Z M229.487894,51.6932886 C228.959965,52.3200905 227.81406,53.2947232 227.102503,53.7337788 C225.415721,54.8325948 222.60834,56.2921897 220.494271,55.5623922 C219.270088,55.139816 218.907541,54.2057929 219.445475,52.6479108 C220.962167,48.2526468 230.638508,36.0897482 235.868358,37.8942313 C237.370925,38.4127406 237.635184,39.8111267 237.548667,40.9646775 C237.502172,41.8204239 237.004847,43.0805016 236.476918,43.707892 L229.487894,51.6932886 L229.487894,51.6932886 Z M242.405377,76.3357237 C238.723412,79.1071883 236.21678,79.3031743 234.891366,78.6622473 C233.95675,78.16316 233.610683,77.3115335 234.054449,76.4805061 C235.107953,74.5082873 238.95118,74.5583137 241.96985,74.9026133 C243.046307,75.0103173 243.23994,75.647713 242.405377,76.3357237 L242.405377,76.3357237 Z M254.919114,65.2710526 C253.080486,66.0903091 250.078296,67.0896607 248.105478,66.0361628 C246.963692,65.4258403 247.163799,64.5995212 247.529288,62.9927897 C248.370325,59.2931874 261.190697,48.4039032 266.070949,51.0093978 C267.472285,51.7580287 267.513483,53.1811338 267.246282,54.3058458 C267.065597,55.1439358 266.376406,56.3104346 265.756075,56.8466003 L257.595837,63.6313625 C256.976683,64.1675282 255.691291,64.9491177 254.919114,65.2710526 Z M218.812785,24.3453061 C220.760883,24.8014295 222.741941,23.5737219 223.198655,21.6250449 C223.654781,19.6769566 222.41353,17.7529986 220.464843,17.2968752 C218.516744,16.8395747 216.606902,18.0243185 216.149599,19.9724068 C215.692884,21.9210838 216.864098,23.8880056 218.812785,24.3453061 Z M49.3329176,83.5877916 C47.5819831,83.7979026 46.3348469,82.4995694 45.1977694,79.7339902 L41.2892127,70.2201387 C39.9667422,66.9448783 37.9344811,63.2146717 34.3172563,62.0322821 C33.229617,61.7497798 33.1248552,61.2577551 33.9405847,60.4573321 C39.6200866,54.8072873 39.6348003,45.861383 35.3601659,39.1637257 C30.1038311,30.9293739 19.9907864,29.6339835 10.8135354,35.4923737 C-0.845040019,42.933365 -2.44177459,56.7300682 3.10000672,65.4111266 C4.49310319,67.5940449 6.12927057,69.0636451 7.4170167,69.9864858 C8.70476282,70.9105035 9.80535023,70.5567872 10.3721233,69.1478073 C11.1325292,67.0567021 10.9188857,66.2851179 9.37806335,64.9650085 C8.67298115,64.2975969 7.8731425,63.4818717 7.23927477,62.4895826 C3.75623932,57.032581 3.9345698,45.6083081 13.3107506,39.6233804 C20.1567574,35.2534239 27.0786871,36.9095933 30.4987477,42.2671305 C34.6150624,48.7164213 33.6410131,59.1130923 23.1807243,61.3213181 C21.9353537,61.5579137 21.2261517,61.1029674 20.9895548,59.8576034 L19.3981172,51.2377538 C18.8972616,48.4851226 19.265105,46.4352157 19.7641949,45.1392366 C20.2856497,43.5501615 20.1314498,43.0893298 18.8478235,41.9540239 C17.9803016,41.250711 16.9509287,41.2795498 16.1669809,42.1288221 C13.8139603,44.6778163 13.1294773,48.7458486 13.7574596,52.4642843 L20.282707,87.1891066 C20.5781588,88.7464002 21.4680455,89.1560285 22.8069954,88.3008706 L23.8487279,87.6358133 C25.387196,86.654118 25.7827013,85.6335786 25.4913693,83.8644084 L22.4220841,67.4610335 C22.2349254,66.1838879 22.6227794,65.5876905 23.86815,65.3510949 L25.2441785,65.1009627 C27.3111641,64.6195318 30.8395178,63.6937484 33.788739,68.0954864 C34.8198776,69.6015765 35.8563131,71.6626658 37.0251722,74.4776829 L40.2315894,82.3459588 C42.5822558,88.1066503 47.3342038,90.5191018 52.1967991,88.1831614 C53.631094,87.4774943 53.9318428,86.3074642 53.1084621,85.0179592 C52.1267617,83.4800876 51.707126,83.2593827 49.3329176,83.5877916 Z M80.5536985,24.096351 C82.4853177,23.5737219 83.6453486,21.5520652 83.1227168,19.6210447 C82.6000849,17.6894356 80.5943085,16.5859112 78.6626893,17.1085404 C76.7310701,17.6311695 75.6122376,19.580435 76.1348695,21.5120441 C76.65809,23.4436531 78.6220794,24.6189802 80.5536985,24.096351 Z M165.830389,38.0602013 C165.599678,42.4095587 162.755219,48.2697146 156.466568,47.9360088 C153.1754,47.7617991 150.324466,45.9602588 147.949081,44.0663167 C146.935599,43.187617 146.858499,42.4172099 147.505315,41.3319304 C148.916656,39.167257 149.971925,37.0426047 150.768233,35.3758415 L154.089417,28.3032802 C154.683852,27.0967602 155.469565,26.725976 156.743775,27.1473752 C165.248902,30.1324822 165.973995,35.357008 165.830389,38.0602013 L165.830389,38.0602013 Z M137.757759,43.9974568 C136.158082,45.2681283 134.465414,46.0626658 132.702708,45.9684984 C130.410897,45.8472579 128.722348,44.343522 128.812985,42.6390918 C128.90009,40.9935163 130.583342,39.2561275 132.934008,39.3803108 C134.461882,39.4615302 136.063914,40.3714228 137.70891,41.5785313 C138.732397,42.2812556 138.741225,43.2246954 137.757759,43.9974568 L137.757759,43.9974568 Z M58.6019824,55.4664592 C58.6049251,56.2863042 58.3612657,57.7706181 58.1017154,58.5657442 C57.5261141,60.4944105 56.328416,63.4230171 54.243774,64.2334454 C53.0372477,64.7025168 52.1561892,64.2240286 51.5594001,62.6885112 C49.8743831,58.3550446 49.3900069,42.8197755 54.5468769,40.8145982 C56.0276672,40.2389999 57.1335516,41.1347674 57.8133262,42.0705561 C58.3312497,42.7526813 58.7673648,44.0363008 58.7703075,44.8555573 L58.6019824,55.4664592 L58.6019824,55.4664592 Z M166.895664,27.9801683 C166.051095,27.2280061 166.193524,26.7642315 167.331779,26.4122808 C170.388116,25.4541274 175.95697,22.6850169 176.356007,15.1628062 C176.770346,7.34632233 170.942529,0.555086173 161.187323,0.0377539451 C147.728963,-0.676152759 139.503397,8.84770403 138.964285,19.014842 C138.833627,21.4826167 139.247378,23.6849571 139.698207,25.182219 C140.149624,26.6794809 141.247269,27.0914633 142.530895,26.2168834 L142.775143,26.0532676 C144.486645,24.9061908 144.759143,24.2128832 144.335976,22.1871067 C144.150583,21.2342502 143.975195,20.1054183 144.043467,18.812382 C144.380117,12.4654983 149.941909,4.27411046 160.285077,4.8220471 C167.454786,5.20224803 171.047291,9.69521075 170.782444,14.6902035 C170.427549,21.390215 164.140664,24.357077 158.545325,23.1764531 C157.382939,22.8786486 156.95271,22.0899966 157.482404,20.9982431 L158.946715,17.8348066 C160.141471,15.3046459 161.632855,13.8521135 162.793474,13.0881804 C164.142429,12.098834 164.284858,11.6350595 163.951739,10.1436831 L163.902301,9.96476497 C163.605672,8.88772518 162.752276,8.31212686 161.619907,8.54695685 C158.164533,9.24791553 155.240031,12.1571001 153.645651,15.5494811 L146.064546,31.8263186 C145.265884,33.5519364 144.274767,35.5618221 143.114736,37.4451704 C142.467332,38.5304499 141.691623,38.7252587 140.67049,37.9636797 C137.773061,35.9243667 135.580715,35.0415472 133.171194,34.9144212 C131.597412,34.8308476 130.233155,35.0821569 129.064884,35.5565252 C128.899502,34.1510766 126.864298,33.3712527 126.208065,34.9038273 C124.468902,38.9800993 122.248893,43.4724734 119.835841,45.9726183 C119.099566,46.7183065 118.537501,46.4928932 118.586939,45.4782393 C118.644028,44.521263 118.576934,43.5219113 118.443921,42.470179 C117.99427,39.3832535 115.982608,31.450826 116.315138,23.7555827 C116.436968,21.9010732 115.859012,21.0847594 114.076885,20.5980316 L113.770251,20.5179893 C112.112307,20.0748139 111.164154,20.5509479 110.604443,22.2235966 C109.062444,26.9119567 98.5026901,51.8215917 95.5605316,52.4148464 C94.2910305,52.6708641 92.9738569,51.7956957 94.2445351,44.9956313 L100.014674,14.055162 C100.300709,12.4961028 99.6185798,11.7933784 98.0612781,12.1076622 L96.8494548,12.3519089 C95.0614417,12.7120993 94.3239893,13.5207619 93.957323,15.2758071 C93.957323,15.2758071 89.0605918,40.1907391 88.9964399,40.4956061 C88.1748249,44.3959026 83.8689974,55.2704732 80.9715686,56.054417 C79.7214897,56.3928311 78.3501695,55.6053561 79.1735502,48.7364318 L81.4094494,29.9623923 C81.5930768,28.3880309 80.8668068,27.7312132 79.3330471,28.1461383 L78.1400574,28.4692503 C76.378529,28.9453843 75.6958117,29.8011306 75.4445011,31.5761864 C75.4445011,31.5761864 73.5899818,44.2299326 73.5099391,44.788463 C72.6765532,50.6244885 69.7549938,59.465043 67.0123536,60.5314889 C65.5862983,61.0858996 64.3185629,59.9370571 64.3921316,53.4677558 L64.6187231,34.5624705 C64.6640414,33.2182306 63.9236462,32.9380826 63.039645,33.9133039 L60.2328528,37.0885113 C59.2611577,38.1608428 58.7032129,38.1885044 57.5208171,37.2586012 C56.3719687,36.2533641 54.3485358,35.2716688 51.6606306,36.3169271 C42.3362422,39.9429611 44.1330835,59.8299417 46.4148896,65.6989258 C47.7591365,69.1542813 50.5594546,71.1600472 54.0701519,69.7946197 C56.8675273,68.7069861 58.5772633,65.9584747 59.4029981,64.1851846 C59.8726606,63.1187386 60.2987704,63.0787175 61.1215624,63.8956198 C62.0844293,64.9102737 63.8883333,65.9767196 66.7957674,64.8467107 C69.9739342,63.6107634 72.1368533,60.4320246 73.6641391,56.2868928 C74.6776212,60.3060757 77.3278592,61.1253322 80.410681,60.291362 C83.7353967,59.3914747 86.2549768,56.3687007 88.2572219,52.1888446 C89.0099766,56.2492258 91.5984169,57.2356295 94.7242029,56.6058849 C100.334256,55.4746988 108.47978,34.0963418 110.486145,31.6114992 C111.032319,30.935848 111.280687,30.8587484 111.391334,31.7345053 C111.87159,35.5300406 112.555485,39.0619072 112.894489,41.7480327 C113.588977,47.2374043 112.554307,48.910053 110.27721,49.1984407 C108.058378,49.4785888 107.070204,47.7647418 105.07973,49.3808901 C104.219271,50.0830259 104.228099,51.0900286 105.141528,51.7456693 C106.515202,52.7585575 108.96239,53.8138211 112.348904,53.3853593 C118.043708,52.6655672 121.693891,49.5580425 124.421818,45.4511662 C125.381153,48.3409287 128.116143,50.7351352 132.672692,50.9764392 C136.492966,51.1788991 139.45337,49.8040549 141.978247,47.7570907 C143.089428,46.8142395 143.794511,46.8513179 144.867436,47.7335489 C148.989048,51.1347582 152.360259,53.1399355 156.82676,53.3771197 C166.229426,53.8756184 171.125568,46.0020456 171.487526,39.1849134 C171.792395,33.4259875 168.806095,29.7316822 166.895664,27.9801683 L166.895664,27.9801683 Z" id="RailsBridge" sketch:type="MSShapeGroup"></path>
            </g>
        </g>
    </g>
</svg>